<svg width="26" height="26" viewBox="0 0 26 26" fill="none" xmlns="http://www.w3.org/2000/svg">
<g id="Eye_light">
<path id="Vector 132" d="M3.05423 12.3613C4.16496 10.3911 7.32065 5.91666 13 5.91666C18.6793 5.91666 21.835 10.3911 22.9457 12.3613C23.1812 12.7791 23.2031 12.8455 23.1981 12.9626C23.1931 13.0788 23.1639 13.1463 22.886 13.5533C22.2272 14.5181 20.9732 16.1627 19.2627 17.5615C17.5503 18.9618 15.4211 20.0833 13 20.0833C10.5788 20.0833 8.4496 18.9618 6.7372 17.5615C5.02671 16.1627 3.77273 14.5181 3.11394 13.5533C2.83598 13.1463 2.8068 13.0788 2.80181 12.9626C2.79679 12.8455 2.81871 12.7791 3.05423 12.3613Z" stroke="#3A3A3A"/>
<circle id="Ellipse 104" cx="13" cy="13" r="2.75" stroke="#3A3A3A"/>
</g>
</svg>
