<svg width="31" height="29" viewBox="0 0 31 29" fill="none" xmlns="http://www.w3.org/2000/svg">
<path id="Vector" d="M28.4671 15.4569C28.2142 15.1923 28.0747 14.8522 28.0747 14.5C28.0747 14.1478 28.2142 13.8077 28.4671 13.5431L30.4866 11.4554C30.7091 11.2273 30.8473 10.9403 30.8813 10.6356C30.9153 10.3308 30.8434 10.024 30.6759 9.75914L27.5205 4.74283C27.3547 4.47827 27.1022 4.26856 26.7991 4.1436C26.496 4.01864 26.1577 3.98481 25.8324 4.04692L22.8663 4.59785C22.4889 4.66951 22.096 4.61175 21.7617 4.43547C21.4275 4.25919 21.175 3.97658 21.052 3.64098L20.0896 0.987838C19.9837 0.699876 19.7821 0.449765 19.5131 0.272856C19.2442 0.0959464 18.9215 0.00118709 18.5907 0.00197167H12.2799C11.9359 -0.01453 11.5954 0.0729053 11.3106 0.250923C11.0257 0.428941 10.812 0.687756 10.7022 0.987838L9.81874 3.64098C9.69568 3.97658 9.4432 4.25919 9.10895 4.43547C8.7747 4.61175 8.38179 4.66951 8.00438 4.59785L4.95942 4.04692C4.65106 4.00688 4.3367 4.05159 4.05595 4.17543C3.77519 4.29927 3.5406 4.49669 3.38172 4.74283L0.226322 9.75914C0.0546058 10.0211 -0.0226036 10.3261 0.00573264 10.6308C0.0340689 10.9355 0.1665 11.2241 0.384092 11.4554L2.38777 13.5431C2.64071 13.8077 2.7802 14.1478 2.7802 14.5C2.7802 14.8522 2.64071 15.1923 2.38777 15.4569L0.384092 17.5446C0.1665 17.7759 0.0340689 18.0645 0.00573264 18.3692C-0.0226036 18.6739 0.0546058 18.979 0.226322 19.2409L3.38172 24.2572C3.54753 24.5217 3.8 24.7314 4.10313 24.8564C4.40626 24.9814 4.74458 25.0152 5.06986 24.9531L8.03593 24.4022C8.41335 24.3305 8.80625 24.3883 9.1405 24.5645C9.47475 24.7408 9.72723 25.0234 9.85029 25.359L10.8127 28.0122C10.9225 28.3122 11.1361 28.5711 11.421 28.7491C11.7059 28.9271 12.0463 29.0145 12.3904 28.998H18.7012C19.0319 28.9988 19.3546 28.9041 19.6236 28.7271C19.8925 28.5502 20.0942 28.3001 20.2 28.0122L21.1624 25.359C21.2855 25.0234 21.5379 24.7408 21.8722 24.5645C22.2064 24.3883 22.5993 24.3305 22.9767 24.4022L25.9428 24.9531C26.2681 25.0152 26.6064 24.9814 26.9096 24.8564C27.2127 24.7314 27.4652 24.5217 27.631 24.2572L30.7864 19.2409C30.9539 18.976 31.0258 18.6692 30.9918 18.3644C30.9578 18.0597 30.8196 17.7727 30.597 17.5446L28.4671 15.4569ZM26.1164 17.3996L27.3785 18.7044L25.3591 21.923L23.4974 21.575C22.3611 21.3616 21.1791 21.539 20.1757 22.0735C19.1723 22.608 18.4174 23.4625 18.0543 24.4746L17.4548 26.0984H13.4159L12.8479 24.4456C12.4848 23.4335 11.7299 22.579 10.7266 22.0445C9.72317 21.51 8.54115 21.3326 7.40486 21.546L5.54317 21.894L3.49216 18.6899L4.75432 17.3851C5.53048 16.5877 5.95958 15.5554 5.95958 14.4855C5.95958 13.4156 5.53048 12.3833 4.75432 11.5859L3.49216 10.2811L5.51162 7.09151L7.3733 7.43946C8.50959 7.6529 9.69162 7.47553 10.695 6.94102C11.6984 6.4065 12.4533 5.55205 12.8164 4.53986L13.4159 2.90158H17.4548L18.0543 4.55435C18.4174 5.56655 19.1723 6.421 20.1757 6.95551C21.1791 7.49003 22.3611 7.6674 23.4974 7.45396L25.3591 7.10601L27.3785 10.3246L26.1164 11.6294C25.3489 12.425 24.9252 13.4513 24.9252 14.5145C24.9252 15.5777 25.3489 16.604 26.1164 17.3996ZM15.4353 8.70079C14.1872 8.70079 12.9671 9.04091 11.9293 9.67813C10.8914 10.3154 10.0826 11.2211 9.60493 12.2807C9.12728 13.3404 9.0023 14.5064 9.24581 15.6314C9.48931 16.7563 10.0904 17.7896 10.9729 18.6007C11.8555 19.4117 12.98 19.964 14.2042 20.1878C15.4283 20.4115 16.6972 20.2967 17.8504 19.8578C19.0035 19.4188 19.9891 18.6755 20.6826 17.7219C21.376 16.7682 21.7461 15.647 21.7461 14.5C21.7461 12.962 21.0813 11.4869 19.8978 10.3993C18.7142 9.31178 17.1091 8.70079 15.4353 8.70079ZM15.4353 17.3996C14.8113 17.3996 14.2012 17.2295 13.6823 16.9109C13.1634 16.5923 12.759 16.1395 12.5201 15.6096C12.2813 15.0798 12.2188 14.4968 12.3406 13.9343C12.4623 13.3718 12.7629 12.8552 13.2041 12.4497C13.6454 12.0442 14.2077 11.768 14.8198 11.6561C15.4318 11.5442 16.0663 11.6016 16.6429 11.8211C17.2194 12.0406 17.7122 12.4122 18.059 12.8891C18.4057 13.3659 18.5907 13.9265 18.5907 14.5C18.5907 15.269 18.2583 16.0065 17.6665 16.5503C17.0748 17.0941 16.2722 17.3996 15.4353 17.3996Z" fill="#12132D"/>
</svg>
